<svg width="20" height="20" viewBox="0 0 20 20" fill="none" xmlns="http://www.w3.org/2000/svg">
<path d="M1 3.77C1 3.77 7.65 7.45 8.49 7.9L16 3.76L8.49 1C8.49 1 1 3.76 1 3.77Z" fill="white"/>
<path opacity="0.5" fill-rule="evenodd" clip-rule="evenodd" d="M8 9.83964L2.67 6.8999C2.67 6.8999 1 7.8099 1 7.8199C1 7.8199 6.23072 10.7145 8 11.7181V9.83964Z" fill="white"/>
<path opacity="0.5" fill-rule="evenodd" clip-rule="evenodd" d="M8 13.8396L2.67 10.8999C2.67 10.8999 1 11.8099 1 11.8199C1 11.8199 6.23072 14.7145 8 15.7181V13.8396Z" fill="white"/>
<path opacity="0.5" d="M19.9235 14.0762C19.9235 14.4468 19.6764 14.6938 19.3058 14.6938H16.8354C16.5883 14.6938 16.3413 14.5703 16.2177 14.4468L15.7236 13.4586L16.0942 12.841C16.3413 12.3469 16.0942 11.7292 16.0942 11.7292L17.0824 13.4586H19.3058C19.6764 13.4586 19.9235 13.8292 19.9235 14.0762ZM11.8944 15.9291C11.5238 15.8055 11.4003 15.435 11.2768 15.1879L10.2886 16.6702H8.18867C7.81809 16.6702 7.57104 16.9173 7.57104 17.2878C7.57104 17.6584 7.81809 17.9055 8.18867 17.9055H10.6591C10.9062 17.9055 11.1532 17.7819 11.2768 17.5349L12.1414 16.0526L11.8944 15.9291Z" fill="white"/>
<path fill-rule="evenodd" clip-rule="evenodd" d="M9.7943 12.3468C9.54725 12.0997 9.54725 11.7292 9.7943 11.4821L11.4001 9.62924C11.6472 9.38219 11.8942 9.25867 12.2648 9.38219L14.4882 10.4939H14.6117L14.8588 10.6174L15.847 11.1115C15.9705 11.4821 16.094 11.9762 15.847 12.4703L15.4764 13.0879L14.1176 15.3114L15.7235 16.176C15.9705 16.4231 16.094 16.5466 16.094 16.7936V19.2641C16.094 19.6347 15.847 19.8817 15.4764 19.8817C15.1058 19.7582 14.8588 19.5112 14.8588 19.1406V17.0407L12.3883 15.6819H12.2648C11.7707 15.4349 11.6472 14.9408 11.6472 14.4467L13.3765 11.4821L12.0177 10.741L10.659 12.3468C10.4119 12.5938 10.0413 12.5938 9.7943 12.3468ZM16.8352 7.8999C15.9705 7.8999 15.2294 8.64105 15.2294 9.50572C15.2294 10.3704 15.9705 11.1115 16.8352 11.1115C17.6998 11.1115 18.441 10.3704 18.441 9.50572C18.441 8.64105 17.6998 7.8999 16.8352 7.8999Z" fill="white"/>
</svg>
