<svg width="16" height="16" viewBox="0 0 16 16" fill="none" xmlns="http://www.w3.org/2000/svg">
<g clip-path="url(#clip0_534_164951)">
<path d="M6.5 1L4.5 1L4.5 6L6.5 6L6.5 1Z" fill="white"/>
<path d="M11.5 1L9.5 1L9.5 6L11.5 6L11.5 1Z" fill="white"/>
<path fill-rule="evenodd" clip-rule="evenodd" d="M14 5L2 5L2 12C2 13.6569 3.34315 15 5 15L11 15C12.6569 15 14 13.6569 14 12L14 5ZM5.34668 12.4893L5.34668 13.5L10.2686 13.5L10.2686 11.6738L9.07715 11.6738L9.00391 12.3135L7.36816 12.3135L7.3584 12.2891L8.59375 10.9707C8.95182 10.5931 9.23991 10.2659 9.45801 9.98926C9.67936 9.70931 9.84049 9.44564 9.94141 9.19824C10.0423 8.94759 10.0928 8.67904 10.0928 8.39258C10.0928 7.97265 9.99512 7.60482 9.7998 7.28906C9.60775 6.97331 9.33268 6.72754 8.97461 6.55176C8.61979 6.37598 8.19173 6.28808 7.69043 6.28808C7.18587 6.28808 6.74805 6.39062 6.37695 6.5957C6.00586 6.80078 5.72103 7.07747 5.52246 7.42578C5.32715 7.77409 5.23437 8.16634 5.24414 8.60254L5.25391 8.63183L6.77734 8.63183C6.77734 8.28027 6.85221 8.00358 7.00195 7.80176C7.15495 7.59993 7.38118 7.49902 7.68066 7.49902C7.96061 7.49902 8.17057 7.58854 8.31055 7.76758C8.45378 7.94336 8.52539 8.1582 8.52539 8.41211C8.52539 8.5651 8.49772 8.71973 8.44238 8.87598C8.38704 9.02897 8.29427 9.19987 8.16406 9.38867C8.03711 9.57422 7.86458 9.79232 7.64648 10.043L5.34668 12.4893Z" fill="white"/>
</g>
<defs>
<clipPath id="clip0_534_164951">
<rect width="16" height="16" fill="white"/>
</clipPath>
</defs>
</svg>
