<svg width="16" height="16" viewBox="0 0 16 16" fill="none" xmlns="http://www.w3.org/2000/svg">
<path d="M14.72 12.9133L8.9333 1.06C8.55996 0.313333 7.43996 0.313333 7.06663 1.06L1.27996 12.9133C0.906631 13.5667 1.46663 14.5 2.2133 14.5H13.6933C14.5333 14.5 15.0933 13.5667 14.72 12.9133ZM7.06663 5.16667C7.06663 4.60667 7.43996 4.23333 7.99996 4.23333C8.55996 4.23333 8.9333 4.60667 8.9333 5.16667V8.43333C8.9333 8.99333 8.55996 9.36667 7.99996 9.36667C7.43996 9.36667 7.06663 8.99333 7.06663 8.43333V5.16667ZM7.99996 12.7267C7.43996 12.7267 6.9733 12.26 6.9733 11.7C6.9733 11.14 7.43996 10.6733 7.99996 10.6733C8.55996 10.6733 9.02663 11.14 9.02663 11.7C9.02663 12.26 8.55996 12.7267 7.99996 12.7267Z" fill="white"/>
</svg>
