<svg width="24" height="24" viewBox="0 0 24 24" fill="none" xmlns="http://www.w3.org/2000/svg">
<g clip-path="url(#clip0_560_164057)">
<path d="M10.6875 5.875L8.9375 5.875L8.9375 10.25L10.6875 10.25L10.6875 5.875Z" fill="white"/>
<path d="M15.0625 5.875L13.3125 5.875L13.3125 10.25L15.0625 10.25L15.0625 5.875Z" fill="white"/>
<path fill-rule="evenodd" clip-rule="evenodd" d="M17.25 15.5L17.25 9.375L6.75 9.375L6.75 15.5C6.75 16.9497 7.92525 18.125 9.375 18.125L14.625 18.125C16.0747 18.125 17.25 16.9497 17.25 15.5ZM9.375 12.875C9.85825 12.875 10.25 13.2668 10.25 13.75C10.25 14.2332 9.85825 14.625 9.375 14.625C8.89175 14.625 8.5 14.2332 8.5 13.75C8.5 13.2668 8.89175 12.875 9.375 12.875ZM12 12.875C12.4832 12.875 12.875 13.2668 12.875 13.75C12.875 14.2332 12.4832 14.625 12 14.625C11.5168 14.625 11.125 14.2332 11.125 13.75C11.125 13.2668 11.5168 12.875 12 12.875ZM15.5 13.75C15.5 13.2668 15.1082 12.875 14.625 12.875C14.1418 12.875 13.75 13.2668 13.75 13.75C13.75 14.2332 14.1418 14.625 14.625 14.625C15.1082 14.625 15.5 14.2332 15.5 13.75Z" fill="white"/>
</g>
<defs>
<clipPath id="clip0_560_164057">
<rect width="14" height="14" fill="white" transform="translate(5 5)"/>
</clipPath>
</defs>
</svg>
