<svg width="16" height="16" viewBox="0 0 16 16" fill="none" xmlns="http://www.w3.org/2000/svg">
<g clip-path="url(#clip0_534_164958)">
<path d="M6.5 1L4.5 1L4.5 6L6.5 6L6.5 1Z" fill="white"/>
<path d="M11.5 1L9.5 1L9.5 6L11.5 6L11.5 1Z" fill="white"/>
<path fill-rule="evenodd" clip-rule="evenodd" d="M14 12L14 5L2 5L2 12C2 13.6569 3.34315 15 5 15L11 15C12.6569 15 14 13.6569 14 12ZM5 9C5.55228 9 6 9.44772 6 10C6 10.5523 5.55228 11 5 11C4.44772 11 4 10.5523 4 10C4 9.44772 4.44772 9 5 9ZM8 9C8.55228 9 9 9.44771 9 10C9 10.5523 8.55228 11 8 11C7.44772 11 7 10.5523 7 10C7 9.44772 7.44772 9 8 9ZM12 10C12 9.44771 11.5523 9 11 9C10.4477 9 10 9.44771 10 10C10 10.5523 10.4477 11 11 11C11.5523 11 12 10.5523 12 10Z" fill="white"/>
</g>
<defs>
<clipPath id="clip0_534_164958">
<rect width="16" height="16" fill="white"/>
</clipPath>
</defs>
</svg>
