<svg width="24" height="24" viewBox="0 0 24 24" fill="none" xmlns="http://www.w3.org/2000/svg">
<path d="M10.6875 5.875L8.9375 5.875L8.9375 10.25L10.6875 10.25L10.6875 5.875Z" fill="white"/>
<path d="M15.0625 5.875L13.3125 5.875L13.3125 10.25L15.0625 10.25L15.0625 5.875Z" fill="white"/>
<path fill-rule="evenodd" clip-rule="evenodd" d="M17.25 9.375L6.75 9.375L6.75 15.5C6.75 16.9497 7.92525 18.125 9.375 18.125L14.625 18.125C16.0747 18.125 17.25 16.9497 17.25 15.5L17.25 9.375ZM9.67834 16.0531L9.67834 16.9375L13.985 16.9375L13.985 15.3396L12.9425 15.3396L12.8784 15.8993L11.4471 15.8993L11.4386 15.8779L12.5195 14.7244C12.8328 14.394 13.0849 14.1077 13.2758 13.8656C13.4694 13.6206 13.6104 13.3899 13.6987 13.1735C13.787 12.9541 13.8312 12.7192 13.8312 12.4685C13.8312 12.1011 13.7457 11.7792 13.5748 11.5029C13.4068 11.2266 13.1661 11.0116 12.8528 10.8578C12.5423 10.704 12.1678 10.6271 11.7291 10.6271C11.2876 10.6271 10.9045 10.7168 10.5798 10.8962C10.2551 11.0757 10.0059 11.3178 9.83215 11.6226C9.66125 11.9273 9.58008 12.2705 9.58862 12.6522L9.59717 12.6779L10.9302 12.6779C10.9302 12.3702 10.9957 12.1281 11.1267 11.9515C11.2606 11.7749 11.4585 11.6866 11.7206 11.6866C11.9655 11.6866 12.1493 11.765 12.2717 11.9216C12.3971 12.0754 12.4597 12.2634 12.4597 12.4856C12.4597 12.6195 12.4355 12.7548 12.3871 12.8915C12.3387 13.0253 12.2575 13.1749 12.1436 13.3401C12.0325 13.5024 11.8815 13.6933 11.6907 13.9126L9.67834 16.0531Z" fill="white"/>
</svg>
