<svg width="31" height="31" viewBox="0 0 31 31" fill="none" xmlns="http://www.w3.org/2000/svg">
<path d="M13.1601 13.142C12.7014 13.6172 12.2741 14.1219 11.8799 14.6524C11.4553 15.2051 11.085 15.7973 10.7746 16.4208C10.4974 17.0259 10.3233 17.6734 10.2588 18.3366C10.2128 18.6165 10.2321 18.9039 10.315 19.1756C10.3979 19.4473 10.5425 19.696 10.7378 19.9023C10.9653 20.0349 11.2204 20.116 11.4829 20.1381C11.7463 20.1602 12.0106 20.1243 12.2575 20.0312C12.8479 19.8655 13.4124 19.6177 13.9337 19.2944C15.027 18.6267 16.0318 17.8254 16.9271 16.909C17.8389 16.0119 18.6365 15.007 19.3033 13.9156C19.6266 13.3943 19.8744 12.8297 20.0402 12.2393C20.1323 11.9944 20.1691 11.7319 20.1488 11.4712C20.1277 11.2096 20.0503 10.9564 19.9204 10.7289C19.715 10.5318 19.4664 10.3853 19.1947 10.3006C18.923 10.2159 18.6356 10.1956 18.3547 10.2407C17.6925 10.3089 17.0459 10.4839 16.4389 10.7565C15.8172 11.0696 15.225 11.4399 14.6706 11.8617C14.1401 12.2559 13.6353 12.6833 13.1601 13.142ZM12.9482 12.9301C13.9236 11.917 15.0298 11.0374 16.2363 10.3144C16.8543 9.93862 17.5248 9.65679 18.2257 9.47627C18.6015 9.38232 18.9902 9.34548 19.377 9.36574C19.8127 9.41456 20.2253 9.58679 20.5651 9.8631C20.8976 10.1781 21.1334 10.5806 21.2467 11.0236C21.3351 11.4288 21.36 11.8451 21.3204 12.2578C21.2375 13.0324 21.0284 13.7885 20.7033 14.4959C20.0779 15.8516 19.2131 17.084 18.1521 18.1339C17.6169 18.6469 17.0514 19.1268 16.4574 19.5707C15.8412 20.0137 15.1882 20.4015 14.5048 20.7312C13.8002 21.0536 13.0468 21.259 12.2759 21.3391C11.8633 21.3833 11.446 21.3584 11.0417 21.2654C10.5987 21.1558 10.1962 20.9228 9.88122 20.5931C9.60768 20.2523 9.43821 19.8397 9.39308 19.4049C9.36545 19.0181 9.39953 18.6294 9.49439 18.2537C9.67491 17.5528 9.95675 16.8832 10.3325 16.2642C11.0518 15.0411 11.9314 13.9202 12.9482 12.9301Z" fill="white"/>
<path d="M15.9666 15.9579C17.3555 14.569 18.0435 13.006 17.5038 12.4672C16.964 11.9275 15.401 12.6155 14.0131 14.0035C12.6251 15.3924 11.9361 16.9554 12.4759 17.4942C13.0156 18.0339 14.5786 17.3459 15.9666 15.9579Z" fill="white" fill-opacity="0.5"/>
</svg>
