<svg width="16" height="16" viewBox="0 0 16 16" fill="none" xmlns="http://www.w3.org/2000/svg">
<g clip-path="url(#clip0_20191_15845)">
<path d="M3.6998 3.19995H3.2998V7.99995H3.6998V3.19995Z" fill="white"/>
<path d="M12.6998 3.19995H12.2998V7.99995H12.6998V3.19995Z" fill="white"/>
<path d="M14 2.70004L8.95 1.57004L13.87 0.0400391L8 1.21004L2.13 0.0400391L7.05 1.57004L2 2.70004L2.25 3.64004L8 2.00004L13.75 3.64004L14 2.70004Z" fill="white"/>
<path fill-rule="evenodd" clip-rule="evenodd" d="M13.4001 8.20003C13.4001 8.35916 13.3369 8.51178 13.2243 8.6243C13.1118 8.73682 12.9592 8.80004 12.8001 8.80004H9.80009V15.4C9.80009 15.5592 9.73688 15.7118 9.62436 15.8243C9.51184 15.9368 9.35922 16 9.20009 16C9.04096 16 8.88835 15.9368 8.77583 15.8243C8.66331 15.7118 8.6001 15.5592 8.6001 15.4V11.8H7.40009V15.4C7.40009 15.5592 7.33687 15.7118 7.22435 15.8243C7.11183 15.9368 6.95922 16 6.80009 16C6.64096 16 6.48835 15.9368 6.37582 15.8243C6.2633 15.7118 6.20009 15.5592 6.20009 15.4V8.80004H3.20009C3.04096 8.80004 2.88835 8.73682 2.77583 8.6243C2.66331 8.51178 2.6001 8.35916 2.6001 8.20003C2.6001 8.0409 2.66331 7.8883 2.77583 7.77578C2.88835 7.66326 3.04096 7.60004 3.20009 7.60004H12.8001C12.9592 7.60004 13.1118 7.66326 13.2243 7.77578C13.3369 7.8883 13.4001 8.0409 13.4001 8.20003V8.20003ZM8.00009 4.38004C7.81277 4.37872 7.62705 4.41448 7.45361 4.48525C7.28018 4.55602 7.12245 4.6604 6.98953 4.79239C6.85661 4.92438 6.75112 5.08137 6.67914 5.25431C6.60715 5.42725 6.57009 5.61272 6.5701 5.80004C6.5701 6.1793 6.72075 6.54302 6.98892 6.81119C7.2571 7.07937 7.62083 7.23003 8.00009 7.23003C8.37935 7.23003 8.74308 7.07937 9.01126 6.81119C9.27944 6.54302 9.43008 6.1793 9.43008 5.80004C9.43009 5.61272 9.39303 5.42725 9.32104 5.25431C9.24906 5.08137 9.14357 4.92438 9.01065 4.79239C8.87773 4.6604 8.72001 4.55602 8.54657 4.48525C8.37313 4.41448 8.18741 4.37872 8.00009 4.38004V4.38004Z" fill="white"/>
</g>
<defs>
<clipPath id="clip0_20191_15845">
<rect width="16" height="16" fill="white"/>
</clipPath>
</defs>
</svg>
