<svg width="20" height="21" viewBox="0 0 20 21" fill="none" xmlns="http://www.w3.org/2000/svg">
<path fill-rule="evenodd" clip-rule="evenodd" d="M10.625 3.58333C10.625 3.26117 10.8862 3 11.2083 3H18.7917C19.1138 3 19.375 3.26117 19.375 3.58333C19.375 3.9055 19.1138 4.16667 18.7917 4.16667H11.2083C10.8862 4.16667 10.625 3.9055 10.625 3.58333Z" fill="#C0C0C0"/>
<path fill-rule="evenodd" clip-rule="evenodd" d="M12.375 6.49984C12.375 6.17767 12.6362 5.9165 12.9583 5.9165H17.0417C17.3638 5.9165 17.625 6.17767 17.625 6.49984C17.625 6.822 17.3638 7.08317 17.0417 7.08317H12.9583C12.6362 7.08317 12.375 6.822 12.375 6.49984Z" fill="#C0C0C0"/>
<path fill-rule="evenodd" clip-rule="evenodd" d="M13.542 9.41659C13.542 9.09442 13.8032 8.83325 14.1253 8.83325H15.8753C16.1975 8.83325 16.4587 9.09442 16.4587 9.41659C16.4587 9.73875 16.1975 9.99992 15.8753 9.99992H14.1253C13.8032 9.99992 13.542 9.73875 13.542 9.41659Z" fill="#C0C0C0"/>
<circle cx="7.5" cy="11.5" r="5.5" fill="#26BBFF"/>
</svg>
