<?xml version="1.0" encoding="UTF-8" standalone="no"?>
<!DOCTYPE svg PUBLIC "-//W3C//DTD SVG 1.1//EN" "http://www.w3.org/Graphics/SVG/1.1/DTD/svg11.dtd">
<svg width="100%" height="100%" viewBox="0 0 16 16" version="1.1" xmlns="http://www.w3.org/2000/svg" xmlns:xlink="http://www.w3.org/1999/xlink" xml:space="preserve" xmlns:serif="http://www.serif.com/" style="fill-rule:evenodd;clip-rule:evenodd;stroke-linejoin:round;stroke-miterlimit:2;">
    <g transform="matrix(-0.6325,-0.6325,0.6325,-0.6325,7.87797,17.128)">
        <path d="M3,4.5C4.105,4.5 5,3.605 5,2.5C5,1.395 4.105,0.5 3,0.5C1.895,0.5 1,1.395 1,2.5C1,3.605 1.895,4.5 3,4.5Z" style="fill:rgb(186,186,186);fill-rule:nonzero;"/>
    </g>
    <g transform="matrix(-0.6325,-0.6325,0.6325,-0.6325,7.87797,17.128)">
        <path d="M10.33,4.86C10.04,4.57 9.47,4.61 8.79,4.86C8.197,4.912 7.6,4.828 7.043,4.615C6.487,4.402 5.987,4.065 5.58,3.63L3.07,1.12L1.66,2.53L4.15,5.03C4.577,5.492 4.88,6.054 5.032,6.664C5.184,7.274 5.18,7.912 5.02,8.52C4.64,9.29 4.55,9.96 4.87,10.28C5.45,10.86 7.15,10.12 8.66,8.61C10.17,7.1 10.91,5.44 10.33,4.86Z" style="fill:rgb(186,186,186);fill-opacity:0.5;fill-rule:nonzero;"/>
    </g>
    <g transform="matrix(-0.6325,-0.6325,0.6325,-0.6325,7.87797,17.128)">
        <path d="M13.65,2C13.282,1.699 12.834,1.512 12.361,1.46C11.94,1.44 11.519,1.48 11.111,1.58C10.35,1.776 9.622,2.083 8.95,2.49C8.342,2.861 7.755,3.265 7.19,3.7C7.297,3.802 7.411,3.895 7.531,3.98C8.051,3.605 8.599,3.271 9.171,2.98C9.831,2.689 10.533,2.5 11.251,2.42C11.555,2.368 11.868,2.392 12.161,2.49C12.456,2.58 12.726,2.738 12.951,2.95C13.093,3.198 13.179,3.475 13.201,3.76C13.22,4.042 13.179,4.325 13.081,4.59C12.902,5.232 12.632,5.844 12.281,6.41C11.56,7.597 10.693,8.689 9.7,9.66C8.733,10.659 7.64,11.53 6.45,12.25C5.884,12.6 5.271,12.869 4.631,13.05C4.362,13.15 4.076,13.191 3.791,13.17C3.505,13.145 3.228,13.056 2.98,12.91C2.768,12.686 2.611,12.415 2.521,12.12C2.431,11.825 2.41,11.514 2.46,11.21C2.531,10.491 2.72,9.788 3.021,9.13C3.309,8.57 3.644,8.035 4.021,7.53L3.771,7.18C3.332,7.749 2.928,8.343 2.561,8.96C2.154,9.632 1.847,10.36 1.651,11.12C1.549,11.528 1.512,11.95 1.541,12.37C1.589,12.842 1.773,13.29 2.07,13.66C2.412,14.018 2.85,14.272 3.33,14.39C3.769,14.492 4.223,14.519 4.671,14.47C5.507,14.381 6.324,14.158 7.09,13.81C7.831,13.45 8.541,13.029 9.21,12.55C9.838,12.07 10.436,11.553 11.001,11C12.156,9.844 13.095,8.489 13.771,7C14.122,6.231 14.348,5.411 14.441,4.57C14.484,4.122 14.457,3.67 14.361,3.23C14.242,2.762 13.996,2.336 13.65,2Z" style="fill:rgb(186,186,186);fill-rule:nonzero;"/>
    </g>
</svg>
