<svg width="20" height="20" viewBox="0 0 20 20" fill="none" xmlns="http://www.w3.org/2000/svg">
<path d="M18.7103 3.26028L17.1902 1.74029C16.7702 1.32029 16.0803 1.32029 15.6503 1.74029L12.3903 6.1803C11.8203 6.7503 9.84026 6.63027 9.27026 6.06027C9.27026 6.06027 7.86023 4.9403 7.67023 5.1203L5.75024 7.04028L13.4003 14.6903L15.3203 12.7703C15.5003 12.5903 14.3802 11.1703 14.3802 11.1703C13.8102 10.6003 13.7202 8.65029 14.2902 8.08029L18.7103 4.79028C19.1303 4.37028 19.1303 3.68027 18.7103 3.25027V3.26028Z" fill="white"/>
<path opacity="0.5" d="M7.15027 18.0903L0.0302734 10.9203C0.0302734 10.9203 2.21023 10.3603 3.55023 9.25031C4.89023 8.14031 4.99023 7.8103 4.99023 7.8103L12.6403 15.4603C12.6403 15.4603 12.7603 15.5703 11.1503 16.9503C9.54027 18.3303 7.15027 18.0903 7.15027 18.0903Z" fill="white"/>
<path opacity="0.5" d="M13.4697 17.3999L12.5098 18.9399L14.6498 18.9599L14.8398 18.2299L13.4697 17.3999Z" fill="white"/>
<path opacity="0.5" d="M16.8195 17.9399L16.4395 18.96L19.9995 18.9999L19.9094 17.27L19.3295 17.21L16.8195 17.9399Z" fill="white"/>
</svg>
