<svg width="20" height="20" viewBox="0 0 20 20" fill="none" xmlns="http://www.w3.org/2000/svg">
<path fill-rule="evenodd" clip-rule="evenodd" d="M16.4793 6.74976C14.7693 7.12976 14.7393 8.53975 13.7993 8.87975C13.0593 9.14975 12.6193 8.92976 11.7793 8.85976L11.5293 10.4498C12.3593 10.2398 13.0093 10.1698 13.3693 10.2998C14.7793 10.7898 15.1193 12.3798 16.9693 12.4498C18.6493 12.5098 20.0293 11.0898 19.8893 9.34975C19.7493 7.59975 18.0893 6.39975 16.4793 6.75975V6.74976ZM18.4993 11.0098C17.7193 11.7898 16.4493 11.7898 15.6693 11.0098C14.8893 10.2298 14.8893 8.95975 15.6693 8.17975C16.4493 7.39975 17.7193 7.39975 18.4993 8.17975C19.2793 8.95975 19.2793 10.2298 18.4993 11.0098Z" fill="white"/>
<path fill-rule="evenodd" clip-rule="evenodd" d="M8.59961 9.44971C4.99961 10.7697 0.0996094 15.1897 0.0996094 15.1897C0.0996094 15.1897 4.02962 13.2297 7.66962 11.7797L8.59961 9.44971Z" fill="white"/>
<path fill-rule="evenodd" clip-rule="evenodd" d="M10.6606 0.109891C8.91055 -0.0301087 7.50055 1.34989 7.56055 3.02989C7.63055 4.87989 9.21054 5.21988 9.71054 6.62988C10.4205 8.64988 4.81055 19.8999 4.81055 19.8999C4.81055 19.8999 10.6405 13.8399 11.1205 9.38989C11.3105 7.66989 10.7405 7.22989 11.1205 6.19989C11.4605 5.25989 12.8705 5.23988 13.2505 3.51988C13.6105 1.90988 12.4106 0.249891 10.6606 0.109891ZM11.8206 4.32989C11.0406 5.10989 9.77054 5.10989 8.99054 4.32989C8.21054 3.54989 8.21054 2.27989 8.99054 1.49989C9.77054 0.719891 11.0406 0.719891 11.8206 1.49989C12.6006 2.27989 12.6006 3.54989 11.8206 4.32989Z" fill="white"/>
</svg>
