<svg width="20" height="20" viewBox="0 0 20 20" fill="none" xmlns="http://www.w3.org/2000/svg">
	<g clip-path="url(#clip0_15955_17518)">
		<path opacity="0.5" d="M9.71953 0C9.02953 0 8.34953 0.26 7.81953 0.79L1.76953 6.84C0.0195312 8.59 0.0195312 11.41 1.76953 13.16L7.82953 19.22C8.16953 19.56 8.58953 19.78 9.02953 19.9L9.33953 18.97C9.03953 18.9 8.75953 18.75 8.52953 18.53L2.46953 12.47C1.11953 11.12 1.11953 8.92 2.46953 7.57L8.52953 1.49C8.84953 1.17 9.26953 1 9.71953 1C10.1695 1 10.5895 1.17 10.9095 1.49L12.8095 3.39C13.4695 4.05 13.4695 5.11 12.8095 5.77L9.27953 9.3L8.56953 10.01L9.27953 10.72L12.2795 13.72L12.9995 13L9.99953 10L13.5295 6.47C14.5795 5.42 14.5795 3.73 13.5295 2.68L11.6295 0.78C11.1395 0.29 10.4895 0.02 9.82953 0L9.71953 0Z" fill="white"/>
		<path d="M10.38 3.91015C10.05 3.58015 10.75 2.16015 9.29 2.09015C8.46 2.05015 8.52 3.53015 8.77 4.25015L4.25 8.77015C4.25 8.77015 2.75 8.72015 2.75 9.98015C2.75 11.2401 4.24 11.1902 4.24 11.1902L8.76 15.7102C8.51 16.4402 8.45 17.9102 9.28 17.8702C9.47 17.8702 9.62 17.8302 9.74 17.7802L10.5 15.5002L11.64 14.3602C11.16 14.2302 10.47 14.3102 10.03 14.4502V14.4702L5.56 10.0002L10.05 5.51015C10.77 5.74015 12.24 5.81015 12.2 5.00015C12.13 3.54015 10.72 4.24015 10.38 3.91015Z" fill="white"/>
		<path d="M14.9502 17.82L13.1802 16.06L18.0802 11.17C18.1902 11.06 18.3402 11 18.4902 11C18.6402 11 18.7902 11.06 18.9002 11.17L19.8302 12.09C19.9402 12.2 20.0002 12.35 20.0002 12.5C20.0002 12.65 19.9402 12.8 19.8302 12.91L14.9502 17.82ZM14.0202 18.74L12.2502 16.98L10.9902 20L14.0202 18.74Z" fill="white"/>
	</g>
	<defs>
		<clipPath id="clip0_15955_17518">
			<rect width="20" height="20" fill="white"/>
		</clipPath>
	</defs>
</svg>
