<svg width="21" height="20" viewBox="0 0 21 20" fill="none" xmlns="http://www.w3.org/2000/svg">
<path opacity="0.5" d="M18.5323 2.27878C16.2542 0.000585079 12.7873 -0.296568 12.094 0.396795L1.39636 11.0944C0.405845 12.0849 1.39636 14.7593 3.67456 17.1366C5.95275 19.4148 8.62715 20.5043 9.71672 19.4148L20.3153 8.81621C21.1077 8.02379 20.8105 4.55697 18.5323 2.27878Z" fill="white"/>
<path d="M1.39599 11.292C2.38651 10.3015 5.45712 10.8958 7.63626 13.174C9.81541 15.4522 10.5088 18.4238 9.51825 19.4143C8.52773 20.4048 5.55617 19.7114 3.37703 17.4332C1.19789 15.155 0.405474 12.2825 1.39599 11.292Z" fill="white"/>
<path d="M14.2973 6.34644L14.2974 6.34636L14.2894 6.33868C13.1998 5.2965 12.4978 4.07158 12.186 3.0092C12.03 2.47762 11.9766 2.00366 12.0091 1.6239C12.0419 1.24051 12.1576 0.993253 12.2973 0.853553C12.4843 0.666606 12.8463 0.5 13.3438 0.5C14.6154 0.5 16.4865 1.05985 18.0939 2.57196C19.1688 3.6008 19.8238 4.8854 20.0918 6.01961C20.2258 6.58689 20.2594 7.10087 20.2104 7.5145C20.1604 7.93616 20.0315 8.20516 19.8902 8.34644C19.7416 8.49508 19.4245 8.6 18.8438 8.6C17.6084 8.6 15.829 7.87809 14.2973 6.34644Z" stroke="white"/>
<path opacity="0.5" d="M14.9744 18.8L16.1744 20L18.9744 17.2L20.3744 18.5L20.9744 14L16.4744 14.7L17.7744 16L14.9744 18.8Z" fill="white"/>
</svg>
