<svg width="20" height="20" viewBox="0 0 20 20" fill="none" xmlns="http://www.w3.org/2000/svg">
<path opacity="0.5" fill-rule="evenodd" clip-rule="evenodd" d="M0.5 19.5V7.50001H6C6 6.21443 6.38099 4.95772 7.09521 3.8888C7.80944 2.81988 8.82498 1.98679 10.0127 1.49482C11.2004 1.00285 12.5072 0.874083 13.7681 1.12489C15.0289 1.37569 16.1872 1.99478 17.0962 2.90382C18.0052 3.81286 18.6242 4.97107 18.875 6.23194C19.1258 7.49282 18.9973 8.79972 18.5054 9.98744C18.0134 11.1752 17.1802 12.1903 16.1113 12.9045C15.0424 13.6188 13.7856 14 12.5 14V19.5H0.5Z" fill="white"/>
<path d="M12.5 1.5C14.0913 1.5 15.6175 2.13217 16.7427 3.25739C17.8679 4.3826 18.5 5.9087 18.5 7.5C18.5 9.0913 17.8679 10.6174 16.7427 11.7426C15.6175 12.8678 14.0913 13.5 12.5 13.5H12V19H1V8H6.5V7.5C6.5 5.9087 7.13211 4.3826 8.25732 3.25739C9.38254 2.13217 10.9087 1.5 12.5 1.5ZM12.5 0.5C10.7317 0.511755 9.03215 1.18572 7.73633 2.38898C6.44051 3.59224 5.64253 5.23743 5.5 7H0V20H13V14.5C14.7626 14.3575 16.4076 13.5596 17.6108 12.2638C18.8141 10.968 19.4882 9.26829 19.5 7.5C19.5 5.64348 18.7625 3.86299 17.4497 2.55023C16.137 1.23748 14.3565 0.5 12.5 0.5Z" fill="white"/>
</svg>
