<svg width="20" height="20" viewBox="0 0 20 20" fill="none" xmlns="http://www.w3.org/2000/svg">
<path opacity="0.5" d="M8 10.9999C8.61112 9.71307 9.62499 8.66056 10.8882 8.00189C12.1514 7.34323 13.595 7.1143 15 7.34991V3.20996L8 0.959961V10.9999Z" fill="white"/>
<path d="M0 13.64L7.6001 15.88C7.41148 15.271 7.31372 14.6375 7.31006 14C7.30447 12.96 7.54062 11.933 8 11V1L0 3.35999V13.64Z" fill="white"/>
<path opacity="0.5" d="M14 19C16.7614 19 19 16.7614 19 14C19 11.2386 16.7614 9 14 9C11.2386 9 9 11.2386 9 14C9 16.7614 11.2386 19 14 19Z" fill="white"/>
<path d="M13.14 16.4701C14.9791 16.4701 16.47 14.9792 16.47 13.1401C16.47 11.301 14.9791 9.81006 13.14 9.81006C11.3009 9.81006 9.81 11.301 9.81 13.1401C9.81 14.9792 11.3009 16.4701 13.14 16.4701Z" fill="white"/>
</svg>
