<svg width="20" height="20" viewBox="0 0 20 20" fill="none" xmlns="http://www.w3.org/2000/svg">
<path opacity="0.5" d="M12 0C5 5.22 3.52002 9.87998 3.52002 13.48C3.64844 15.1158 4.38893 16.6431 5.59375 17.7571C6.79857 18.871 8.37914 19.4897 10.02 19.4897C11.6609 19.4897 13.2415 18.871 14.4463 17.7571C15.6511 16.6431 16.3916 15.1158 16.52 13.48C16.52 9.87998 9.77 5.47 12 0ZM10 19.13C8.78969 19.13 7.62873 18.6499 6.77197 17.795C5.91522 16.9402 5.43282 15.7803 5.43018 14.5699C5.54765 12.9161 5.99141 11.3019 6.73633 9.82068C7.48125 8.33942 8.51241 7.02042 9.77002 5.93994C9.92002 10.5499 14.5698 12.17 14.5698 15.22C14.5698 17.39 12.52 19.13 10 19.13Z" fill="white"/>
<path d="M7.68004 17.1899C7.67023 17.4552 7.71484 17.7197 7.81187 17.9668C7.90891 18.2139 8.05629 18.4383 8.244 18.626C8.43171 18.8137 8.65609 18.9607 8.90318 19.0577C9.15027 19.1548 9.41476 19.1998 9.68004 19.1899C10.2734 19.1821 10.84 18.9423 11.2587 18.5217C11.6773 18.1012 11.9146 17.5334 11.9198 16.9399C11.9198 15.9999 11.1297 14.37 9.08971 12.52C9.12971 14.61 7.68004 15.7199 7.68004 17.1899Z" fill="white"/>
</svg>
