<svg width="20" height="20" viewBox="0 0 20 20" fill="none" xmlns="http://www.w3.org/2000/svg">
<path d="M0 15.55C0 15.55 7.21996 17.21 12.21 12.21C17.2 7.21002 15.5498 0 15.5498 0L9.99023 2C9.99023 2 10.4902 6.49999 8.49023 8.48999C6.49023 10.48 2 10 2 10L0 15.55Z" fill="white"/>
<path opacity="0.5" d="M6.66016 20C8.40741 20.0149 10.1387 19.6671 11.7446 18.9786C13.3506 18.2901 14.7964 17.2759 15.9902 16C17.2966 14.6888 18.3238 13.127 19.0112 11.4086C19.6986 9.69009 20.0319 7.85039 19.9902 6L15.5498 0C15.5498 0 13.3298 7.76999 10.5498 10.55C7.7698 13.33 0 15.55 0 15.55L6.66016 20Z" fill="white"/>
</svg>
