<?xml version="1.0" encoding="UTF-8" standalone="no"?>
<svg
   width="16"
   height="16"
   viewBox="0 0 16 16"
   fill="none"
   version="1.1"
   id="svg1053"
   sodipodi:docname="lock-red.svg"
   xml:space="preserve"
   inkscape:version="1.2.1 (9c6d41e410, 2022-07-14)"
   xmlns:inkscape="http://www.inkscape.org/namespaces/inkscape"
   xmlns:sodipodi="http://sodipodi.sourceforge.net/DTD/sodipodi-0.dtd"
   xmlns="http://www.w3.org/2000/svg"
   xmlns:svg="http://www.w3.org/2000/svg"><defs
     id="defs1057" /><sodipodi:namedview
     id="namedview1055"
     pagecolor="#ffffff"
     bordercolor="#000000"
     borderopacity="0.25"
     inkscape:showpageshadow="2"
     inkscape:pageopacity="0.0"
     inkscape:pagecheckerboard="0"
     inkscape:deskcolor="#d1d1d1"
     showgrid="false"
     inkscape:zoom="41.608815"
     inkscape:cx="10.586699"
     inkscape:cy="18.637878"
     inkscape:window-width="1875"
     inkscape:window-height="1718"
     inkscape:window-x="1796"
     inkscape:window-y="326"
     inkscape:window-maximized="0"
     inkscape:current-layer="svg1053" /><path
     d="M 5.4260258,7.4851593 V 4.400169 C 5.4212688,4.0602196 5.4847583,3.722684 5.6126677,3.4076735 5.7405652,3.0926748 5.9303039,2.8065125 6.1707094,2.566107 6.4111149,2.3257015 6.6972772,2.1360335 7.0122877,2.0081359 7.3272864,1.8802266 7.6647514,1.8166663 8.0047008,1.8214234 c 0.3395138,-0.00314 0.6762722,0.061535 0.9905527,0.1900094 0.3142804,0.1284864 0.5997598,0.3181897 0.8398356,0.5582655 0.2400879,0.2400876 0.4299439,0.5257083 0.5584189,0.8399887 0.128474,0.3142804 0.193012,0.6509683 0.189868,0.990482 v 3.0849903 h 1.542495 V 4.400169 C 12.12281,3.3081178 11.687614,2.2617292 10.915401,1.4895396 10.143211,0.71733836 9.096752,0.28210746 8.0047008,0.27899892 6.9126496,0.28210746 5.8661903,0.71733836 5.0940007,1.4895396 4.3217994,2.2617292 3.8866392,3.3081178 3.8835306,4.400169 v 3.0849903 z"
     fill="white"
     id="path1049"
     style="fill:#333333;fill-opacity:1;stroke-width:1.17748" /><path
     d="M 13.597718,7.343862 H 2.4116842 c -0.23327,0.00305 -0.4561194,0.097071 -0.6210839,0.262024 -0.1649528,0.1649646 -0.2589744,0.3878139 -0.262024,0.6210839 v 6.4761251 c 0.00305,0.233258 0.097071,0.456154 0.262024,0.621119 0.1649645,0.164965 0.3878139,0.258927 0.6210839,0.261989 H 13.597718 c 0.233258,-0.0031 0.456154,-0.09702 0.621119,-0.261989 0.164964,-0.164965 0.258927,-0.387861 0.261989,-0.621119 V 8.2269699 C 14.477764,7.9936999 14.383801,7.7708506 14.218837,7.605886 14.053872,7.4409332 13.830976,7.3469117 13.597718,7.343862 Z M 8.2990701,13.231248 H 7.7103315 c -0.1561452,0 -0.3059203,-0.06205 -0.4163324,-0.1725 C 7.1835989,12.948301 7.1215929,12.798643 7.1215929,12.64251 v -2.354955 c 0,-0.156145 0.062006,-0.3058497 0.1724062,-0.4162618 C 7.4044112,9.760893 7.5541863,9.6988164 7.7103315,9.6988164 h 0.5887386 c 0.1561452,0 0.3059203,0.062077 0.4163324,0.1724768 0.1104002,0.1104121 0.1724062,0.2601168 0.1724062,0.4162618 v 2.354955 c 0,0.156133 -0.062006,0.305791 -0.1724062,0.416238 -0.1104121,0.110447 -0.2601872,0.1725 -0.4163324,0.1725 z"
     fill="white"
     id="path1051"
     style="fill:#333333;fill-opacity:1;stroke-width:1.17748" /></svg>
