<?xml version="1.0" encoding="UTF-8" standalone="no"?>
<svg
   width="16"
   height="16"
   viewBox="0 0 16 16"
   fill="none"
   version="1.1"
   id="svg1053"
   sodipodi:docname="lock-unlocked-green.svg"
   xml:space="preserve"
   inkscape:version="1.2.1 (9c6d41e410, 2022-07-14)"
   xmlns:inkscape="http://www.inkscape.org/namespaces/inkscape"
   xmlns:sodipodi="http://sodipodi.sourceforge.net/DTD/sodipodi-0.dtd"
   xmlns="http://www.w3.org/2000/svg"
   xmlns:svg="http://www.w3.org/2000/svg"><defs
     id="defs1057" /><sodipodi:namedview
     id="namedview1055"
     pagecolor="#ffffff"
     bordercolor="#000000"
     borderopacity="0.25"
     inkscape:showpageshadow="2"
     inkscape:pageopacity="0.0"
     inkscape:pagecheckerboard="0"
     inkscape:deskcolor="#d1d1d1"
     showgrid="false"
     inkscape:zoom="41.608815"
     inkscape:cx="8.4236959"
     inkscape:cy="13.855237"
     inkscape:window-width="1875"
     inkscape:window-height="1718"
     inkscape:window-x="365"
     inkscape:window-y="122"
     inkscape:window-maximized="0"
     inkscape:current-layer="svg1053" /><path
     d="M 5.7942244,8.0027692 4.8453381,5.0673338 C 4.7362495,4.7453278 4.6928414,4.4046271 4.7176585,4.0655452 4.742468,3.7264782 4.8349902,3.3958284 4.9897969,3.0931331 5.1446037,2.7904377 5.3585549,2.5219462 5.6189553,2.3033574 5.8793408,2.0847611 6.1808961,1.9204841 6.5058286,1.8204484 6.8279175,1.7130323 7.1682433,1.6709912 7.5068043,1.6965705 7.845369,1.7221615 8.1753581,1.81486 8.4776383,1.9694544 8.7799337,2.1240563 9.0484375,2.3374344 9.2673511,2.5969625 9.4862638,2.8564909 9.6512321,3.157006 9.7526687,3.4810277 L 9.9845094,4.1982405 11.452221,3.7237974 11.220381,3.0065846 C 10.881573,1.9684157 10.145628,1.1066116 9.1733416,0.60937491 8.2010711,0.11212011 7.0714737,0.01986001 6.0314071,0.35279701 4.9932528,0.69164981 4.1313931,1.4276536 3.6341529,2.3999316 3.1368979,3.3722017 3.0446834,4.5017105 3.3776204,5.541777 l 0.9488863,2.9354352 z"
     fill="white"
     id="path1049"
     style="fill:#333333;fill-opacity:1;stroke-width:1.17748"
     inkscape:transform-center-x="-2.4121434"
     inkscape:transform-center-y="-3.7232236"
     sodipodi:nodetypes="cccscccsscccccccccc" /><path
     d="M 13.597718,7.343862 H 2.4116842 c -0.23327,0.00305 -0.4561194,0.097071 -0.6210839,0.262024 -0.1649528,0.1649646 -0.2589744,0.3878139 -0.262024,0.6210839 v 6.4761251 c 0.00305,0.233258 0.097071,0.456154 0.262024,0.621119 0.1649645,0.164965 0.3878139,0.258927 0.6210839,0.261989 H 13.597718 c 0.233258,-0.0031 0.456154,-0.09702 0.621119,-0.261989 0.164964,-0.164965 0.258927,-0.387861 0.261989,-0.621119 V 8.2269699 C 14.477764,7.9936999 14.383801,7.7708506 14.218837,7.605886 14.053872,7.4409332 13.830976,7.3469117 13.597718,7.343862 Z M 8.2990701,13.231248 H 7.7103315 c -0.1561452,0 -0.3059203,-0.06205 -0.4163324,-0.1725 C 7.1835989,12.948301 7.1215929,12.798643 7.1215929,12.64251 v -2.354955 c 0,-0.156145 0.062006,-0.3058497 0.1724062,-0.4162618 C 7.4044112,9.760893 7.5541863,9.6988164 7.7103315,9.6988164 h 0.5887386 c 0.1561452,0 0.3059203,0.062077 0.4163324,0.1724768 0.1104002,0.1104121 0.1724062,0.2601168 0.1724062,0.4162618 v 2.354955 c 0,0.156133 -0.062006,0.305791 -0.1724062,0.416238 -0.1104121,0.110447 -0.2601872,0.1725 -0.4163324,0.1725 z"
     fill="white"
     id="path1051"
     style="fill:#333333;fill-opacity:1;stroke-width:1.17748" /></svg>
