<svg width="20" height="20" viewBox="0 0 20 20" fill="none" xmlns="http://www.w3.org/2000/svg">
<path opacity="0.5" d="M5.57704 20C4.08271 20 2.68179 19.4263 1.62775 18.3723C0.573718 17.3182 0 15.9173 0 14.4229C0 12.9286 0.573718 11.5277 1.62775 10.4736L10.4737 1.62775C11.5277 0.573717 12.9286 0 14.423 0C15.9173 0 17.3182 0.573717 18.3722 1.62775C19.4263 2.68179 20 4.08272 20 5.57705C20 7.07138 19.4263 8.47232 18.3722 9.52635L9.52638 18.3723C8.47234 19.4263 7.07138 20 5.57704 20Z" fill="white"/>
<path d="M5.00005 14.9999C4.18879 15.8522 3.99994 16.5 3.99994 17.5C3.99994 19.5 2.8491e-05 14.4999 2.99994 11.5C5.99986 8.50013 9.49985 4.9998 11.9999 2.49988C14.4999 -4.55379e-05 19.4999 4.00003 17.4999 4.00002C16.3359 4.00002 14.8112 4.75272 13.9999 5.60508C13.1887 6.45745 5.81132 14.1475 5.00005 14.9999Z" fill="white"/>
</svg>
