<svg width="20" height="20" viewBox="0 0 20 20" fill="none" xmlns="http://www.w3.org/2000/svg">
<path opacity="0.5" d="M17 3H8.38C3.53 3 4.07 10 8.38 10H11.07C15.92 10 16.45 17 11.07 17H3" stroke="white" stroke-width="2"/>
<path d="M17 5C18.1046 5 19 4.10457 19 3C19 1.89543 18.1046 1 17 1C15.8954 1 15 1.89543 15 3C15 4.10457 15.8954 5 17 5Z" fill="white"/>
<path d="M5 9C6.10457 9 7 8.10457 7 7C7 5.89543 6.10457 5 5 5C3.89543 5 3 5.89543 3 7C3 8.10457 3.89543 9 5 9Z" fill="white"/>
<path d="M15 16C16.1046 16 17 15.1046 17 14C17 12.8954 16.1046 12 15 12C13.8954 12 13 12.8954 13 14C13 15.1046 13.8954 16 15 16Z" fill="white"/>
<path d="M3 19C4.10457 19 5 18.1046 5 17C5 15.8954 4.10457 15 3 15C1.89543 15 1 15.8954 1 17C1 18.1046 1.89543 19 3 19Z" fill="white"/>
</svg>
