<svg width="20" height="21" viewBox="0 0 20 21" fill="none" xmlns="http://www.w3.org/2000/svg">
<path d="M1.71973 8.09022C1.71973 8.09022 4.37973 9.21022 6.49973 8.50022C9.49973 7.50022 7.49973 4.50022 8.49973 2.50022C9.12973 1.24022 10.4997 1.50022 10.4997 1.50022L14.4 6.62" stroke="white" stroke-miterlimit="10"/>
<path d="M17.2199 4.45996C20.1299 7.64996 20.3499 11.97 19.3099 13.01C19.3099 13.01 18.4999 14.01 16.4999 14.01C15.1064 14.01 13.5 16 13 17.9089C12.5 19.8178 12.0399 20.3 12.0399 20.3C13.3299 18.83 12.4599 14.7 9.37988 11.62L9.73988 11.72C10.7699 11.85 12.2599 11.92 13.4999 11.5C16.4999 10.5 14.4999 7.49996 15.4999 5.49996C15.7799 4.94996 16.1899 4.68996 16.5699 4.56996L17.2099 4.45996H17.2199Z" fill="white"/>
<path d="M1.7002 8L6.95993 15.9001" stroke="white" stroke-miterlimit="10"/>
<path opacity="0.5" d="M9.37965 11.6198C9.29965 11.5398 9.20964 11.4698 9.11964 11.3898L8.83964 11.1698L6.94964 15.8998L1.70965 8.08984C1.70965 8.08984 0.989646 8.43984 0.609646 9.01984C-0.490354 10.7298 0.179653 14.5298 3.31965 17.6598C6.44965 20.7898 10.5697 21.7598 11.9597 20.3698C13.3497 18.9798 12.4996 14.7398 9.36964 11.6098L9.37965 11.6198Z" fill="white"/>
<path fill-rule="evenodd" clip-rule="evenodd" d="M18.9997 15L19.9997 18.88L18.8097 18C17.7697 20.1 15.7997 21 13.4697 21C13.4697 21 16.4097 20.96 17.8797 17.65L15.9997 17.97L18.9997 15Z" fill="white"/>
</svg>
