<svg width="20" height="20" viewBox="0 0 20 20" fill="none" xmlns="http://www.w3.org/2000/svg">
<g clip-path="url(#clip0_20596_17061)">
<path opacity="0.5" d="M0.660888 10.0061C0.660888 15.177 4.83498 19.3511 10.0059 19.3511C15.1768 19.3511 19.3509 15.1645 19.3509 10.0061C19.3509 4.84765 15.1643 0.661098 10.0059 0.661098C4.84744 0.661098 0.660888 4.84765 0.660888 10.0061Z" fill="white"/>
<path d="M9.99974 6.00721C9.99974 4.53273 8.80443 3.33742 7.32995 3.33742C5.85546 3.33742 4.66016 4.53273 4.66016 6.00721C4.66016 7.4817 5.85546 8.677 7.32995 8.677C8.80443 8.677 9.99974 7.4817 9.99974 6.00721Z" fill="white"/>
<path d="M14.0166 14.0154C11.961 16.071 10.0679 16.7633 7.62573 17.1369C9.53215 17.7725 12.8922 17.572 15.1876 15.2765C17.4831 12.981 17.8036 9.26108 17.1681 7.3546C16.8246 9.8266 16.0721 11.9598 14.0166 14.0154Z" fill="white"/>
</g>
<defs>
<clipPath id="clip0_20596_17061">
<rect width="20" height="20" fill="white"/>
</clipPath>
</defs>
</svg>
