<svg width="20" height="20" viewBox="0 0 20 20" fill="none" xmlns="http://www.w3.org/2000/svg">
<g clip-path="url(#clip0_16365_17481)">
<path opacity="0.5" d="M9.38039 10.62C9.30039 10.54 9.21039 10.47 9.12039 10.39L8.84039 10.17L6.95039 14.9L1.72039 7.09003C1.72039 7.09003 1.00039 7.44003 0.62039 8.02003C-0.47961 9.73003 0.19039 13.53 3.33039 16.66C6.46039 19.79 10.5804 20.76 11.9704 19.37C13.3604 17.98 12.5104 13.74 9.38039 10.61V10.62Z" fill="white"/>
<path d="M12.3997 6.61L8.57973 1L1.71973 7.09L6.95973 14.9" stroke="white" stroke-miterlimit="10"/>
<path opacity="0.5" d="M7.17 11.32L4.5 7.35L8.27 4L10.21 6.84L8 9L7.17 11.32Z" fill="white"/>
<path d="M15.89 4.11C15.81 4.03 15.72 3.96 15.3 3.62L8.79004 10.13C9.21004 10.47 9.30004 10.53 9.38004 10.61C12.46 13.69 13.33 17.82 12.04 19.29L18.31 12.5C19.25 11 19.11 7.33 15.89 4.11Z" fill="white"/>
<path fill-rule="evenodd" clip-rule="evenodd" d="M18.9997 14L19.9997 17.88L18.8097 17C17.7697 19.1 15.7997 20 13.4697 20C13.4697 20 16.4097 19.96 17.8797 16.65L15.9997 16.97L18.9997 14Z" fill="white"/>
</g>
<defs>
<clipPath id="clip0_16365_17481">
<rect width="20" height="20" fill="white"/>
</clipPath>
</defs>
</svg>
