<svg width="21" height="20" viewBox="0 0 21 20" fill="none" xmlns="http://www.w3.org/2000/svg">
<path d="M18.7126 2.30002C16.4126 -0.0999808 13.0126 -0.399981 12.2126 0.400019L1.41255 11.2L1.27157 11.3686C2.27157 10.3686 5.51255 10.9 7.71255 13.2C10.0126 15.5 10.6289 18.5586 9.62891 19.5586L9.71255 19.5L20.6126 8.80002C21.4126 8.00002 21.1126 4.60002 18.7126 2.30002Z" fill="white"/>
<path opacity="0.5" d="M1.42164 11.2089C2.43217 10.1984 5.5648 10.8047 7.78796 13.1289C10.0111 15.4531 10.7185 18.4847 9.70796 19.4952C8.69743 20.5058 5.66585 19.7984 3.34164 17.4742C1.01743 15.15 0.310062 12.2195 1.42164 11.2089Z" fill="white"/>
</svg>
