<svg width="20" height="20" viewBox="0 0 20 20" fill="none" xmlns="http://www.w3.org/2000/svg">
<path opacity="0.5" d="M9.38039 10.6201C9.30039 10.5401 9.21039 10.4701 9.12039 10.3901L8.84039 10.1701L6.95039 14.9001L1.72039 7.1001C1.72039 7.1001 1.00039 7.4501 0.62039 8.0301C-0.47961 9.7401 0.19039 13.5401 3.33039 16.6701C6.46039 19.8001 10.5804 20.7701 11.9704 19.3801C13.3604 17.9901 12.5104 13.7501 9.38039 10.6201Z" fill="white"/>
<path d="M12.3997 6.62L8.57973 1L1.71973 7.1L6.95973 14.9" stroke="white" stroke-miterlimit="10"/>
<path d="M15.89 4.11012C15.81 4.03012 15.72 3.96012 15.3 3.62012L8.79004 10.1301C9.21004 10.4701 9.30004 10.5301 9.38004 10.6101C12.46 13.6901 13.33 17.8201 12.04 19.2901L18.31 12.5001C19.25 11.0001 19.11 7.33012 15.89 4.11012Z" fill="white"/>
<path fill-rule="evenodd" clip-rule="evenodd" d="M18.9997 14L19.9997 17.88L18.8097 17C17.7697 19.1 15.7997 20 13.4697 20C13.4697 20 16.4097 19.96 17.8797 16.65L15.9997 16.97L18.9997 14Z" fill="white"/>
</svg>
