<svg width="20" height="20" viewBox="0 0 20 20" fill="none" xmlns="http://www.w3.org/2000/svg">
<path d="M19.6545 15.6909L13 10L13.0818 18.7545L15.0273 16.0818L16.9091 20L18.3091 19.3273L16.4364 15.4364L19.6545 15.6909Z" fill="white"/>
<path d="M7 6L0 8.70833V16.2632L7 19V6Z" fill="white"/>
<path opacity="0.5" d="M12 16.2632L7 19V6L12 8.70833V16.2632Z" fill="white"/>
<path fill-rule="evenodd" clip-rule="evenodd" d="M8 4.5L12 3V7.8125L8 5.5625V4.5Z" fill="white"/>
<path opacity="0.5" fill-rule="evenodd" clip-rule="evenodd" d="M14.2 9.9L15 9.5V4.875L12 3V7.8125L13 8.375V9L14.2 9.9Z" fill="white"/>
<path fill-rule="evenodd" clip-rule="evenodd" d="M12 1.5L16 0V4.28571L12 2V1.5Z" fill="white"/>
<path opacity="0.5" d="M19 6L16 7.10526V0L19 1.875V6Z" fill="white"/>
</svg>
