<svg width="20" height="20" viewBox="0 0 20 20" fill="none" xmlns="http://www.w3.org/2000/svg">
<path opacity="0.5" d="M8.31797 11.7922C5.58432 9.05851 4.04512 6.1656 4.88006 5.33066C5.71501 4.49572 8.60792 6.03492 11.3416 8.76856C14.0752 11.5022 15.6144 14.3951 14.7795 15.2301C13.9445 16.065 11.0516 14.5258 8.31797 11.7922Z" fill="white"/>
<path d="M11.2999 8.8C13.8999 11.4 15.3603 14.1377 14.8603 15.1377L15.008 15.0048L19.5999 0.5L5.11938 5.13097L4.9126 5.30821C5.97489 4.81093 8.69985 6.3 11.2999 8.8Z" fill="white"/>
<path d="M9.79997 10.2999C8.79997 9.29988 7.39997 9.19988 7.09997 9.49988L0.613281 16.0273L0.664062 16.0078C1.06406 15.6078 2.39997 15.7999 3.29997 16.7999C4.19997 17.6999 4.525 19.0609 4.125 19.4609L4.19997 19.3999L10.6 12.9999C10.9 12.6999 10.8 11.1999 9.79997 10.2999Z" fill="white"/>
<path opacity="0.5" d="M0.651212 15.9934C1.06144 15.5865 2.39467 15.7899 3.31768 16.8072C4.24068 17.7227 4.54835 19.0452 4.13813 19.4521C3.7279 19.859 2.49723 19.5538 1.47166 18.6383C0.446099 17.7227 0.240986 16.4003 0.651212 15.9934Z" fill="white"/>
</svg>
