<svg width="16" height="16" viewBox="0 0 16 16" fill="none" xmlns="http://www.w3.org/2000/svg">
<path d="M16 7.28999L7 0L7.12012 11.21L9.73999 7.78L12.3 12.78L14.1899 11.92L11.6499 6.92L16 7.28999Z" fill="white"/>
<path opacity="0.5" d="M3.62012 12.8099L5.21997 10.7499V2.99988L3.5 1.62988L3.62012 12.8099ZM9.51001 11.1999L8.62988 11.9099L7.53003 11.7999L8.87012 14.3999L10.0801 13.8599L9.51001 11.1999Z" fill="white"/>
<path opacity="0.5" d="M1.71997 12.35V4.56996L0 3.19995L0.120117 14.41L1.71997 12.35ZM6.01001 12.7999L5.12988 13.51L4.03003 13.3999L5.37012 16L6.69995 15.3999L6.01001 12.7999Z" fill="white"/>
</svg>
