<svg width="16" height="16" viewBox="0 0 16 16" fill="none" xmlns="http://www.w3.org/2000/svg">
<g clip-path="url(#clip0_13431_10893)">
<path d="M8 10.63L0 3.85999L0.0800781 14.29L2.38989 11.11L4.69995 15.8L6.37012 15.01L4.13989 10.31L8 10.63Z" fill="white"/>
<path d="M10.43 1.23001L12.7401 5.92999L15.1202 2.75V13.17L7.1202 6.41L10.95 6.73001L8.72006 2.03L10.43 1.23001ZM10.43 0.439999C10.3173 0.428028 10.2041 0.456356 10.1102 0.519986L8.44003 1.30999C8.24857 1.41094 8.10489 1.58349 8.04013 1.79001C7.9598 1.99578 7.9598 2.22422 8.04013 2.42999L9.71005 5.85L7.24008 5.60998H7.16C7.00741 5.61064 6.85843 5.65663 6.73202 5.74209C6.60561 5.82755 6.50751 5.94864 6.45004 6.08999C6.36908 6.23937 6.34894 6.41421 6.39364 6.57812C6.43835 6.74204 6.54445 6.88241 6.69003 6.97L14.69 13.73C14.7638 13.7963 14.8516 13.8451 14.9469 13.8728C15.0421 13.9005 15.1423 13.9064 15.2401 13.89C15.3528 13.902 15.4663 13.8736 15.5601 13.81C15.7015 13.7525 15.8226 13.6544 15.908 13.528C15.9935 13.4015 16.0395 13.2526 16.0401 13.1V2.75C16.0357 2.58598 15.979 2.42767 15.8783 2.29815C15.7569 2.14213 15.4502 1.95001 15.2401 1.95001C15.1164 1.9447 14.9935 1.97135 14.8831 2.0274C14.7728 2.08345 14.6788 2.16699 14.6102 2.26999L12.94 4.42001L11.18 0.92001C11.1318 0.764311 11.0302 0.630671 10.8929 0.542813C10.7556 0.454955 10.5916 0.418541 10.43 0.439999Z" fill="white"/>
</g>
<defs>
<clipPath id="clip0_13431_10893">
<rect width="16" height="16" fill="white"/>
</clipPath>
</defs>
</svg>
