<svg width="16" height="16" viewBox="0 0 16 16" fill="none" xmlns="http://www.w3.org/2000/svg">
<path d="M7.98 10.83L0 4L0.0999999 14.51L2.43 11.29L4.7 16L6.37 15.19L4.13 10.52L7.98 10.83Z" fill="white"/>
<path fill-rule="evenodd" clip-rule="evenodd" d="M11.5 1.1163e-05C10.61 1.1163e-05 9.74006 0.263937 9.00004 0.758403C8.26001 1.25287 7.68316 1.95567 7.34256 2.77793C7.00197 3.6002 6.91283 4.505 7.08646 5.37791C7.26009 6.25082 7.68881 7.05265 8.31815 7.68199C8.94749 8.31132 9.74919 8.73992 10.6221 8.91356C11.495 9.08719 12.3999 8.99808 13.2222 8.65748C14.0445 8.31689 14.7473 7.74009 15.2417 7.00007C15.7362 6.26005 16 5.39003 16 4.50001C16.0014 3.90869 15.8859 3.32294 15.6602 2.77638C15.4345 2.22982 15.103 1.73323 14.6848 1.31511C14.2667 0.896979 13.7702 0.565534 13.2237 0.339855C12.6771 0.114176 12.0914 -0.00130728 11.5 1.1163e-05ZM12.2 5.20002V8.00001H10.8001V5.20002H8.00004V3.8H10.8001V1.00001H12.2V3.8H15V5.20002H12.2Z" fill="white"/>
</svg>
