<svg width="20" height="20" viewBox="0 0 20 20" fill="none" xmlns="http://www.w3.org/2000/svg">
<path opacity="0.5" d="M13.3 20C13.5363 17.054 12.7092 14.039 10.82 11.58C10.5 11.16 9.27001 11.63 8.88001 11.24C8.45001 10.81 8.87002 9.54001 8.39002 9.19001C5.92297 7.35646 2.92273 6.57072 0 6.83416L-8.10623e-06 20H13.3Z" fill="white"/>
<path opacity="0.5" d="M8 0.999806C10.06 0.589806 13.44 1.0898 16.18 3.8198C18.91 6.5498 19 9.99981 19 11.9998L10.9 9.0998L8 0.999806Z" fill="white"/>
<path d="M18.4402 12.4598L9.90024 10.0998L7.54025 1.56982L4.49023 7.51982L6.64026 13.3598L12.4902 15.5098L18.4402 12.4598Z" fill="white"/>
<path d="M2.00197 2.55303L1.39597 6.41628L3.21397 2.81815L4.76999 3.75L3.25 0L0 2.53999L2.00197 2.55303Z" fill="white"/>
<path d="M17.6065 18.1197L13.7433 18.5742L17.2277 16.9077L16.2501 15.2397L20.0001 16.7498L17.4701 19.9998L17.6065 18.1197Z" fill="white"/>
</svg>
