<svg width="20" height="20" viewBox="0 0 20 20" fill="none" xmlns="http://www.w3.org/2000/svg">
<path d="M18.6 13.7L10 6.30005L10.1 17.7L12.6 14.2L15.1 19.3L16.9 18.4L14.5 13.4L18.6 13.7Z" fill="white"/>
<path opacity="0.5" d="M7.89999 17.3L1 15.2V3.80002L10.6 0.900024L17.9 9.20002L17.1 9.80002L10.2 2.10002L2 4.50002V14.4L8.20001 16.3L7.89999 17.3Z" fill="white"/>
<path d="M12 0H9V3H12V0Z" fill="white"/>
<path d="M3 3H0V6H3V3Z" fill="white"/>
<path d="M3 13H0V16H3V13Z" fill="white"/>
<path d="M9 16H6V19H9V16Z" fill="white"/>
<path d="M19 7H16V10H19V7Z" fill="white"/>
</svg>
