<svg width="20" height="20" viewBox="0 0 20 20" fill="none" xmlns="http://www.w3.org/2000/svg">
<g clip-path="url(#clip0_15728_17705)">
<path opacity="0.5" fill-rule="evenodd" clip-rule="evenodd" d="M20 8.00235L15.0712 6.99882L18.4241 1L14 4L4 14L1 17.6027L7.70588 15.027L10.6229 20L12.4559 13.3768L19.3071 14.5698L14.5012 10.2101L20 8.00235Z" fill="white"/>
<path d="M5.71095 9.84319L3.15653 7.28861L10.2314 0.213428C10.391 0.0589895 10.6045 -0.0272217 10.8266 -0.0272217C11.0488 -0.0272217 11.2623 0.0589895 11.4219 0.213428L12.7594 1.55088C12.9138 1.71052 13 1.92402 13 2.14614C13 2.36825 12.9138 2.5816 12.7594 2.74123L5.71095 9.84319ZM4.3735 11.1806L1.81908 8.62606L0 12.9996L4.3735 11.1806Z" fill="white"/>
</g>
<defs>
<clipPath id="clip0_15728_17705">
<rect width="20" height="20" fill="white"/>
</clipPath>
</defs>
</svg>
