<svg width="20" height="20" viewBox="0 0 20 20" fill="none" xmlns="http://www.w3.org/2000/svg">
<g clip-path="url(#clip0_15955_17625)">
<path fill-rule="evenodd" clip-rule="evenodd" d="M8.99987 0C6.18987 0 4.54987 1 4.54987 3.82C4.54987 4.26 4.43987 7.22 4.54987 7.63H6.05987C6.32987 7.63 6.57987 7.74 6.76987 7.92C6.95987 8.11 7.05987 8.36 7.05987 8.63V9.77C7.66987 10.02 8.30987 10.15 8.96987 10.15C9.62987 10.15 10.2699 10.02 10.8799 9.77V8.63C10.8799 8.36 10.9899 8.11 11.1699 7.92C11.3599 7.73 11.6099 7.63 11.8799 7.63H13.3899C13.4999 7.22 13.3899 4.26 13.3899 3.82C13.4499 1 11.8099 0 8.99987 0ZM7.24987 6.36H5.81987V3.82H8.35986V5.25C8.35986 5.54 8.23987 5.83 8.02987 6.03C7.81987 6.24 7.53987 6.36 7.24987 6.36ZM12.1799 6.36H10.7499C10.4599 6.36 10.1699 6.24 9.96987 6.03C9.75987 5.82 9.63987 5.54 9.63987 5.25V3.82H12.1799V6.36ZM9.74987 8H8.24987L8.99987 6.5L9.74987 8Z" fill="white"/>
<path d="M8 15H4.5V16H8V15Z" fill="white"/>
<path d="M8 19H4.5V20H7.5L8 19Z" fill="white"/>
<path d="M8 17H4.5V18H8V17Z" fill="white"/>
<path fill-rule="evenodd" clip-rule="evenodd" d="M3.5 12L1.47 20H0L2 11L3.5 12Z" fill="white"/>
<path d="M10 12H8V19L10 14V12Z" fill="white"/>
<path fill-rule="evenodd" clip-rule="evenodd" d="M12 13H3L2 11H14L12 13Z" fill="white"/>
<path d="M14.39 17.5798L12.43 15.6198L17.87 10.1898C17.99 10.0698 18.16 10.0098 18.33 10.0098C18.5 10.0098 18.67 10.0798 18.79 10.1898L19.82 11.2198C19.94 11.3398 20.01 11.5098 20.01 11.6798C20.01 11.8498 19.94 12.0098 19.82 12.1398L14.4 17.5898L14.39 17.5798ZM13.36 18.6098L11.4 16.6498L10 20.0098L13.36 18.6098Z" fill="white"/>
</g>
<defs>
<clipPath id="clip0_15955_17625">
<rect width="20" height="20" fill="white"/>
</clipPath>
</defs>
</svg>
