<svg width="20" height="20" viewBox="0 0 20 20" fill="none" xmlns="http://www.w3.org/2000/svg">
<g clip-path="url(#clip0_15955_17512)">
<path fill-rule="evenodd" clip-rule="evenodd" d="M12.03 14.4702L7.56 10.0002L12.05 5.51015C12.77 5.74015 14.24 5.81015 14.2 5.00015C14.13 3.54015 12.72 4.24015 12.38 3.91015C12.05 3.58015 12.75 2.16015 11.29 2.09015C10.46 2.05015 10.52 3.53015 10.77 4.25015L6.25 8.77015C6.25 8.77015 4.75 8.72015 4.75 9.98015C4.75 11.2401 6.24 11.1902 6.24 11.1902L10.76 15.7102C10.51 16.4402 10.45 17.9102 11.28 17.8702C12.74 17.8002 12.04 16.3901 12.37 16.0501C12.7 15.7201 14.12 16.4202 14.19 14.9602C14.23 14.1402 12.76 14.2202 12.03 14.4502V14.4702Z" fill="white"/>
<path opacity="0.5" d="M15.1563 6.11662L15.1558 6.11712L11.6358 9.64712L11.2832 10.0007L11.6363 10.3537L15.1663 13.8837C16.021 14.7385 16.021 16.1119 15.1663 16.9666L13.2663 18.8666C12.4116 19.7214 11.0381 19.7214 10.1834 18.8666L4.12441 12.8076C4.12423 12.8075 4.12406 12.8073 4.12389 12.8071C2.57776 11.2515 2.57939 8.73774 4.1234 7.19373L4.12369 7.19344L10.1734 1.13373C10.1734 1.13368 10.1735 1.13364 10.1735 1.13359C11.0283 0.278991 12.4016 0.279038 13.2563 1.13373L15.1563 3.03373C16.011 3.88847 16.011 5.26188 15.1563 6.11662Z" stroke="white"/>
</g>
<defs>
<clipPath id="clip0_15955_17512">
<rect width="20" height="20" fill="white"/>
</clipPath>
</defs>
</svg>
