<svg width="20" height="20" viewBox="0 0 20 20" fill="none" xmlns="http://www.w3.org/2000/svg">
<path opacity="0.5" d="M15.8 10.1L17.2 8.5L9.59998 0.5L0 2.8V14.2L9.59998 17.1L11 15.5V14L9.79999 15.3L8.40002 9.1H15.3L15 9.5L15.8 10.1ZM6.59998 8.5L1 12.7V4.3L6.59998 8.5ZM1.79999 3.4L8.70001 1.7L7.29999 7.4L1.79999 3.4ZM7.20001 9.6L8.59998 15.8L1.79999 13.7L7.20001 9.6ZM8.40002 7.9L9.79999 2.2L15.2 7.9H8.40002Z" fill="white"/>
<path d="M19.3 15.3L12 9L12.1 18.6L14.2 15.7L16.3 20L17.8 19.3L15.8 15L19.3 15.3Z" fill="white"/>
<path d="M1.80005 3.39995L8.70007 1.69995L7.20007 7.39995L1.80005 3.39995Z" fill="white"/>
<path d="M8.40002 7.89995L9.79999 2.19995L15.2 7.89995H8.40002Z" fill="white"/>
</svg>
