<svg width="20" height="20" viewBox="0 0 20 20" fill="none" xmlns="http://www.w3.org/2000/svg">
<g clip-path="url(#clip0_18695_14339)">
<path d="M15 20L19 20L19 15L15 15L15 20Z" fill="white"/>
<path d="M15 10L19 10L19 5L15 5L15 10Z" fill="white"/>
<path d="M11 15L15 15L15 10L11 10L11 15Z" fill="white"/>
<path d="M11 5L15 5L15 4.76837e-07L11 1.27146e-07L11 5Z" fill="white"/>
<path fill-rule="evenodd" clip-rule="evenodd" d="M1.00942 9.5H5.19218C5.24372 7.13727 5.71828 4.98608 6.47854 3.38108C6.90294 2.48512 7.44303 1.71025 8.08188 1.18589C4.1289 2.00071 1.2286 5.39971 1.00942 9.5ZM10 0H9.92009C4.31494 0 -0.00390625 4.52328 -0.00390625 10C-0.00390625 15.4767 4.31494 20 9.92009 20H10C10 20 9.99634 18.3885 10 18.3885H9.93107C9.06494 18.3885 8.13009 17.6292 7.38228 16.0505C6.71043 14.6322 6.26295 12.6859 6.19618 10.5H10V9.5H6.19243C6.24394 7.25718 6.69609 5.2578 7.38228 3.80916C8.13009 2.23046 9.06494 1.47119 9.93107 1.47119H10C9.99634 1.47119 10 0 10 0ZM5.19574 10.5H1.00942C1.23317 14.6859 4.25116 18.1409 8.33082 18.8617C7.58251 18.3449 6.95701 17.4887 6.47854 16.4786C5.73336 14.9054 5.26265 12.8075 5.19574 10.5Z" fill="white"/>
<rect opacity="0.5" x="10.5" y="0.5" width="9" height="19" stroke="white"/>
</g>
<defs>
<clipPath id="clip0_18695_14339">
<rect width="20" height="20" fill="white"/>
</clipPath>
</defs>
</svg>
