<svg width="19" height="20" viewBox="0 0 19 20" fill="none" xmlns="http://www.w3.org/2000/svg">
<path d="M10 19V16H7V19H10Z" fill="white"/>
<path d="M4 10H1V13H4V10Z" fill="white"/>
<path d="M4 16H1V19H4V16Z" fill="white"/>
<path d="M7 13H4V16H7V13Z" fill="white"/>
<path d="M10 10H7V13H10V10Z" fill="white"/>
<rect opacity="0.5" x="1.375" y="10.375" width="8.25" height="8.25" stroke="white" stroke-width="0.75"/>
<path d="M11 16V18H15V19.5L19 17L15 14.5V16H11Z" fill="white"/>
<path d="M12.8599 6.14287V1.00001L8.57422 0.999878V8.99988H11V13H18.0028V6.14287H12.8599Z" fill="white"/>
<path opacity="0.5" d="M13.7188 5.28559V0.999878L18.0045 5.28559H13.7188Z" fill="white"/>
</svg>
