<svg width="20" height="20" viewBox="0 0 20 20" fill="none" xmlns="http://www.w3.org/2000/svg">
<path fill-rule="evenodd" clip-rule="evenodd" d="M19.9395 15.62C19.9695 15.42 19.9995 15.21 19.9995 15C19.9995 14.79 19.9595 14.59 19.9395 14.38L18.3995 14.15C18.3095 13.8 18.1795 13.48 17.9995 13.18L18.9295 11.93C18.6795 11.6 18.3795 11.31 18.0595 11.06L16.8095 11.99C16.5095 11.81 16.1895 11.68 15.8495 11.59L15.6195 10.05C15.4195 10.03 15.2195 9.98999 15.0095 9.98999C14.7995 9.98999 14.5895 10.03 14.3795 10.05L14.1495 11.59C13.8095 11.68 13.4895 11.81 13.1995 11.99L11.9495 11.06C11.6195 11.32 11.3295 11.61 11.0795 11.94L12.0095 13.2C11.8295 13.49 11.6995 13.81 11.6195 14.15L10.0795 14.38C10.0495 14.59 10.0195 14.79 10.0195 15C10.0195 15.21 10.0595 15.42 10.0795 15.62L11.6195 15.85C11.6995 16.19 11.8395 16.51 12.0095 16.8L11.0795 18.05C11.3295 18.38 11.6295 18.67 11.9495 18.93L13.1995 18C13.4895 18.18 13.8095 18.31 14.1495 18.4L14.3795 19.94C14.5895 19.97 14.7895 20 15.0095 20C15.2295 20 15.4195 19.96 15.6195 19.94L15.8495 18.41C16.1895 18.33 16.5195 18.19 16.8095 18.01L18.0595 18.94C18.3895 18.69 18.6795 18.39 18.9295 18.07L17.9995 16.82C18.1795 16.52 18.3195 16.2 18.3995 15.85L19.9395 15.62ZM14.9895 17.86C13.4095 17.86 12.1295 16.58 12.1295 15C12.1295 13.42 13.4095 12.14 14.9895 12.14C16.5695 12.14 17.8495 13.42 17.8495 15C17.8495 16.58 16.5695 17.86 14.9895 17.86Z" fill="white"/>
<path opacity="0.5" d="M14.9793 13.5801C15.7693 13.5801 16.4093 14.22 16.4093 15.01C16.4093 15.8 15.7693 16.44 14.9793 16.44C14.1893 16.44 13.5493 15.8 13.5493 15.01C13.5493 14.22 14.1893 13.5801 14.9793 13.5801ZM14.9793 13.05C13.8993 13.05 13.0293 13.93 13.0293 15C13.0293 16.07 13.9093 16.9501 14.9793 16.9501C16.0493 16.9501 16.9293 16.07 16.9293 15C16.9293 13.93 16.0493 13.05 14.9793 13.05Z" fill="white"/>
<rect opacity="0.5" x="7" y="3" width="2" height="7" fill="white"/>
<rect opacity="0.5" x="6.76758" y="9.31812" width="2" height="7" transform="rotate(45 6.76758 9.31812)" fill="white"/>
<circle cx="8" cy="2" r="2" fill="white"/>
<circle cx="8" cy="10" r="2" fill="white"/>
<circle cx="2" cy="15" r="2" fill="white"/>
</svg>
