<svg width="20" height="20" viewBox="0 0 20 20" fill="none" xmlns="http://www.w3.org/2000/svg">
<path opacity="0.5" d="M3.125 16.25L0.625 13.125L3.125 3.75L5.625 13.125L3.125 16.25Z" fill="white"/>
<path opacity="0.5" d="M4.375 3.5L7.5 1L20 3.5L7.5 6L4.375 3.5Z" fill="white"/>
<path d="M3.125 15C4.50571 15 5.625 16.1193 5.625 17.5C5.625 18.8807 4.50571 20 3.125 20C1.74429 20 0.625 18.8807 0.625 17.5C0.625 16.1193 1.74429 15 3.125 15Z" fill="white"/>
<path d="M3.125 1C4.50571 1 5.625 2.11929 5.625 3.5C5.625 4.88071 4.50571 6 3.125 6C1.74429 6 0.625 4.88071 0.625 3.5C0.625 2.11929 1.74429 1 3.125 1Z" fill="white"/>
<path d="M18.5 6L15 12H20L13.5 20L16 14H11L18.5 6Z" fill="white"/>
</svg>
