<svg width="20" height="20" viewBox="0 0 20 20" fill="none" xmlns="http://www.w3.org/2000/svg">
<g clip-path="url(#clip0_18216_13446)">
<g opacity="0.5">
<path fill-rule="evenodd" clip-rule="evenodd" d="M15.63 7.0001C15.63 7.26531 15.5246 7.51967 15.3371 7.7072C15.1496 7.89474 14.8952 8.0001 14.63 8.0001H10V19.0001C10 19.2653 9.89464 19.5197 9.70711 19.7072C9.51957 19.8947 9.26522 20.0001 9 20.0001C8.73478 20.0001 8.48043 19.8947 8.29289 19.7072C8.10536 19.5197 8 19.2653 8 19.0001V14.0001H6V19.0001C6 19.2653 5.89464 19.5197 5.70711 19.7072C5.51957 19.8947 5.26522 20.0001 5 20.0001C4.73478 20.0001 4.48043 19.8947 4.29289 19.7072C4.10536 19.5197 4 19.2653 4 19.0001V8.0001L4.86 6.0001H14.63C14.8952 6.0001 15.1496 6.10545 15.3371 6.29299C15.5246 6.48053 15.63 6.73488 15.63 7.0001ZM7 5.3801C7.47114 5.38208 7.93227 5.24418 8.32497 4.98387C8.71767 4.72355 9.02428 4.35254 9.20595 3.91783C9.38762 3.48312 9.43618 3.00427 9.34548 2.54194C9.25478 2.07961 9.0289 1.6546 8.69645 1.32075C8.36401 0.986901 7.93995 0.759233 7.47801 0.666586C7.01606 0.57394 6.53701 0.620484 6.10154 0.800323C5.66607 0.980162 5.29377 1.2852 5.03181 1.67681C4.76984 2.06841 4.63 2.52895 4.63 3.0001C4.63261 3.62878 4.88283 4.23112 5.32644 4.6766C5.77005 5.12209 6.37133 5.37484 7 5.3801Z" fill="white"/>
<path fill-rule="evenodd" clip-rule="evenodd" d="M5.5 6H2.36657C2.00414 6 1.65659 6.16578 1.40031 6.46085C1.14403 6.75593 1 7.15613 1 7.57343V12C1 12.5523 1.44772 13 2 13V13C2.55228 13 3 12.5523 3 12V8H5.5V6Z" fill="white"/>
</g>
<path d="M18.5 6L15 12H20L13.5 20L16 14H11L18.5 6Z" fill="white"/>
</g>
<defs>
<clipPath id="clip0_18216_13446">
<rect width="20" height="20" fill="white"/>
</clipPath>
</defs>
</svg>
