<svg width="20" height="20" viewBox="0 0 20 20" fill="none" xmlns="http://www.w3.org/2000/svg">
<g clip-path="url(#clip0_15021_16608)">
<path d="M7.83723 19.9296L18.7099 14.0055C18.798 13.9546 18.8713 13.881 18.9222 13.7922C18.9732 13.7034 19 13.6026 19 13.5C19 13.3974 18.9732 13.2966 18.9222 13.2078C18.8713 13.119 18.798 13.0454 18.7099 12.9945L7.83723 7.0704C7.75081 7.0225 7.65361 6.99826 7.55506 7.0001C7.45652 7.00194 7.36016 7.02977 7.27555 7.08086C7.19094 7.13196 7.12079 7.20453 7.07248 7.29137C7.02417 7.37821 6.99925 7.4763 7.00002 7.57593V19.4241C6.99925 19.5237 7.02417 19.6218 7.07248 19.7086C7.12079 19.7955 7.19094 19.868 7.27555 19.9191C7.36016 19.9702 7.45652 19.9981 7.55506 19.9999C7.65361 20.0017 7.75081 19.9775 7.83723 19.9296V19.9296Z" fill="white"/>
<g opacity="0.5">
<path fill-rule="evenodd" clip-rule="evenodd" d="M14.63 7.0001C14.63 7.26531 14.5246 7.51967 14.3371 7.7072C14.1496 7.89474 13.8952 8.0001 13.63 8.0001H12L9 6.5H7C6.44772 6.5 6 6.94772 6 7.5V14H5V19.0001C5 19.2653 4.89464 19.5197 4.70711 19.7072C4.51957 19.8947 4.26522 20.0001 4 20.0001C3.73478 20.0001 3.48043 19.8947 3.29289 19.7072C3.10536 19.5197 3 19.2653 3 19.0001V8.0001L3.86 6.0001H13.63C13.8952 6.0001 14.1496 6.10545 14.3371 6.29299C14.5246 6.48053 14.63 6.73488 14.63 7.0001ZM6 5.3801C6.47114 5.38208 6.93227 5.24418 7.32497 4.98387C7.71767 4.72355 8.02428 4.35254 8.20595 3.91783C8.38762 3.48312 8.43618 3.00427 8.34548 2.54194C8.25478 2.07961 8.0289 1.6546 7.69645 1.32075C7.36401 0.986901 6.93995 0.759233 6.47801 0.666586C6.01606 0.57394 5.53701 0.620484 5.10154 0.800323C4.66607 0.980162 4.29377 1.2852 4.03181 1.67681C3.76984 2.06841 3.63 2.52895 3.63 3.0001C3.63261 3.62878 3.88283 4.23112 4.32644 4.6766C4.77005 5.12209 5.37133 5.37484 6 5.3801Z" fill="white"/>
<path fill-rule="evenodd" clip-rule="evenodd" d="M4.5 6H1.36657C1.00414 6 0.65659 6.16578 0.400308 6.46085C0.144025 6.75593 0 7.15613 0 7.57343V12C0 12.5523 0.447715 13 1 13V13C1.55228 13 2 12.5523 2 12V8H4.5V6Z" fill="white"/>
</g>
<path opacity="0.5" d="M13.9998 3.00002C13.3001 3.00249 12.6132 3.18849 12.0078 3.53944C11.4024 3.89039 10.8997 4.39401 10.5498 5.00002H13.9998C14.5302 5.00002 15.0389 5.21074 15.414 5.58581C15.7891 5.96088 15.9998 6.46959 15.9998 7.00002C15.9998 7.53046 15.7891 8.03917 15.414 8.41424C15.0389 8.78931 14.5302 9.00002 13.9998 9.00002C13.6943 9.00002 13.3483 8.99397 13 8.99265L16.0185 10.4615C16.0185 10.4615 17.1312 9.6031 17.4815 8.99389C17.8318 8.38468 18.0155 7.69393 18.0139 6.99119C18.0124 6.28845 17.8257 5.59852 17.4727 4.99085C17.1197 4.38319 16.6129 3.87924 16.0032 3.52975C15.3936 3.18026 14.7026 2.99755 13.9998 3.00002Z" fill="white"/>
</g>
<defs>
<clipPath id="clip0_15021_16608">
<rect width="20" height="20" fill="white"/>
</clipPath>
</defs>
</svg>
