<svg width="20" height="20" viewBox="0 0 20 20" fill="none" xmlns="http://www.w3.org/2000/svg">
<g clip-path="url(#clip0_15021_16616)">
<path fill-rule="evenodd" clip-rule="evenodd" d="M15.63 7.0001C15.63 7.26531 15.5246 7.51967 15.3371 7.7072C15.1496 7.89474 14.8952 8.0001 14.63 8.0001H10V19.0001C10 19.2653 9.89464 19.5197 9.70711 19.7072C9.51957 19.8947 9.26522 20.0001 9 20.0001C8.73478 20.0001 8.48043 19.8947 8.29289 19.7072C8.10536 19.5197 8 19.2653 8 19.0001V14.0001H6V19.0001C6 19.2653 5.89464 19.5197 5.70711 19.7072C5.51957 19.8947 5.26522 20.0001 5 20.0001C4.73478 20.0001 4.48043 19.8947 4.29289 19.7072C4.10536 19.5197 4 19.2653 4 19.0001V8.0001L4.86 6.0001H14.63C14.8952 6.0001 15.1496 6.10545 15.3371 6.29299C15.5246 6.48053 15.63 6.73488 15.63 7.0001ZM7 5.3801C7.47114 5.38208 7.93227 5.24418 8.32497 4.98387C8.71767 4.72355 9.02428 4.35254 9.20595 3.91783C9.38762 3.48312 9.43618 3.00427 9.34548 2.54194C9.25478 2.07961 9.0289 1.6546 8.69645 1.32075C8.36401 0.986901 7.93995 0.759233 7.47801 0.666586C7.01606 0.57394 6.53701 0.620484 6.10154 0.800323C5.66607 0.980162 5.29377 1.2852 5.03181 1.67681C4.76984 2.06841 4.63 2.52895 4.63 3.0001C4.63261 3.62878 4.88283 4.23112 5.32644 4.6766C5.77005 5.12209 6.37133 5.37484 7 5.3801Z" fill="white"/>
<path fill-rule="evenodd" clip-rule="evenodd" d="M5.5 6H2.36657C2.00414 6 1.65659 6.16578 1.40031 6.46085C1.14403 6.75593 1 7.15613 1 7.57343V12C1 12.5523 1.44772 13 2 13V13C2.55228 13 3 12.5523 3 12V8H5.5V6Z" fill="white"/>
<path opacity="0.5" d="M14.9998 3.00002C14.3001 3.00249 13.6132 3.18849 13.0078 3.53944C12.4024 3.89039 11.8997 4.39401 11.5498 5.00002H14.9998C15.5302 5.00002 16.0389 5.21074 16.414 5.58581C16.7891 5.96088 16.9998 6.46959 16.9998 7.00002C16.9998 7.53046 16.7891 8.03917 16.414 8.41424C16.0389 8.78931 15.5302 9.00002 14.9998 9.00002H11.5498C11.9012 9.60862 12.4067 10.1139 13.0154 10.465C13.6242 10.8161 14.3147 11.0006 15.0175 11C15.7202 10.9994 16.4104 10.8136 17.0185 10.4615C17.6266 10.1093 18.1312 9.6031 18.4815 8.99389C18.8318 8.38468 19.0155 7.69393 19.0139 6.99119C19.0124 6.28845 18.8257 5.59852 18.4727 4.99085C18.1197 4.38319 17.6129 3.87924 17.0032 3.52975C16.3936 3.18026 15.7026 2.99755 14.9998 3.00002V3.00002Z" fill="white"/>
</g>
<defs>
<clipPath id="clip0_15021_16616">
<rect width="20" height="20" fill="white"/>
</clipPath>
</defs>
</svg>
