<svg width="16" height="16" viewBox="0 0 16 16" fill="none" xmlns="http://www.w3.org/2000/svg">
<path opacity="0.5" d="M2 3L5.5 4.5L9 9.07692L8.16251 10.0654L3.5 6.5L2 3Z" fill="white"/>
<path opacity="0.5" d="M16 2L13.5 0.5L1 2L13.5 3.5L16 2Z" fill="white"/>
<path d="M2 4C3.10457 4 4 3.10457 4 2C4 0.89543 3.10457 0 2 0C0.89543 0 0 0.89543 0 2C0 3.10457 0.89543 4 2 4Z" fill="white"/>
<rect x="14.5" y="8.5" width="6" height="6" transform="rotate(90 14.5 8.5)" stroke="white"/>
<rect opacity="0.5" x="7" y="10" width="5" height="2" transform="rotate(90 7 10)" fill="white"/>
<rect opacity="0.5" x="4" y="12" width="3" height="1" transform="rotate(90 4 12)" fill="white"/>
</svg>
